<svg width="124" height="121" viewBox="0 0 124 121" fill="none" xmlns="http://www.w3.org/2000/svg">
<path opacity="0.1" d="M17.7025 3.20752L17.7025 3.20753C9.79487 5.81141 3.79075 12.3969 1.80335 20.6848L1.80334 20.6848C1.11719 23.5459 0.985983 26.9937 1.4513 29.796C1.87369 32.3399 2.53327 34.395 3.61625 36.5621C6.01077 41.3534 9.9015 44.9973 14.8578 47.0871C18.6393 48.6815 22.9966 49.1659 27.1873 48.446C33.8225 47.3061 39.6989 43.3159 43.3692 37.4313C44.249 36.0207 45.2506 33.8933 45.7729 32.3267C47.7333 26.446 47.3786 20.1465 44.7965 14.6938L45.8599 14.1903L44.7965 14.6938C41.1123 6.91361 33.2884 1.98963 24.7386 2.05912L24.7386 2.05912C24.1877 2.06358 23.4801 2.08702 23.1787 2.10883L17.7025 3.20752ZM17.7025 3.20752C19.453 2.63105 21.4295 2.23561 23.1786 2.10883L17.7025 3.20752ZM121.233 4.36885C120.662 4.38141 119.93 4.398 118.992 4.41934C114.974 4.51072 110.789 4.59812 105.234 4.70665C102.904 4.75217 100.438 4.80448 99.7523 4.82291C99.0557 4.84165 97.0665 4.88214 95.332 4.91292C93.5977 4.94375 91.5657 4.98561 90.8166 5.00583L121.233 4.36885ZM121.233 4.36885C120.94 4.8813 120.569 5.527 120.107 6.33295L118.513 9.10729C117.584 10.7259 116.448 12.7026 115.375 14.5672C114.152 16.6924 113.289 18.1942 112.577 19.4348C112.214 20.0665 110.898 22.3573 109.652 24.5256C106.662 29.7262 106.301 30.3555 104.805 32.9665C104.456 33.5759 104.133 34.136 103.896 34.5473C103.777 34.7531 103.68 34.9206 103.611 35.0379C103.597 35.0615 103.585 35.0828 103.574 35.1017C103.557 35.13 103.544 35.153 103.533 35.1706L103.524 35.1857C103.495 35.2289 103.473 35.2664 103.465 35.2786L103.464 35.2816C103.44 35.3209 103.412 35.3684 103.383 35.4192C103.324 35.5216 103.25 35.6512 103.176 35.7848C103.04 36.0317 102.211 37.479 101.331 39.0096C99.6051 42.0086 98.8796 43.2708 97.5033 45.6688L98.5238 46.2545L97.5033 45.6689C97.0151 46.5197 96.1695 47.9911 95.6245 48.9384L96.6443 49.5251L95.6245 48.9384C95.0791 49.8864 94.1124 51.5688 93.4761 52.6773L94.4965 53.263L93.4761 52.6773C92.2815 54.7586 90.7666 57.3947 89.0463 60.3859C88.5013 61.3337 87.7007 62.7269 87.2671 63.4821L87.2671 63.4821C86.0582 65.5879 84.5034 68.2932 83.7768 69.5549L84.7964 70.142L83.7768 69.5549C83.4157 70.182 82.7584 71.3258 82.316 72.0972L82.316 72.0973C81.874 72.868 81.2178 74.0109 80.858 74.6369L81.878 75.2232L80.858 74.6369C79.038 77.8033 75.5796 83.822 74.884 85.0334L73.0898 88.158C72.5364 89.1217 71.8872 90.2514 71.6472 90.6685C70.9383 91.9007 68.0748 96.8819 67.3661 98.1159C66.1241 100.278 64.8968 102.414 63.8929 104.16L64.8949 104.736L63.8929 104.16C63.3387 105.124 62.1607 107.174 61.275 108.716C58.2593 113.966 57.4843 115.315 56.4758 117.067C56.1733 117.593 55.8442 118.168 55.5698 118.648C55.3378 118.285 55.0794 117.88 54.8081 117.452C53.8291 115.909 52.8683 114.396 52.6739 114.092C52.4817 113.792 52.2297 113.396 52.1142 113.214C51.9963 113.028 48.8035 108.012 45.0209 102.071C41.2365 96.1268 38.0218 91.0767 37.8757 90.846L37.8756 90.8459L37.3207 89.97C37.1621 89.7197 36.9479 89.3826 36.8441 89.2201C36.7426 89.0613 36.3531 88.4483 35.9777 87.857L35.6763 87.3821L35.7286 87.2907C35.9506 86.9028 36.5857 85.797 37.1399 84.8333C37.6943 83.8693 38.5475 82.3841 39.0362 81.5325C39.5245 80.6816 40.37 79.2102 40.915 78.263L39.8952 77.6762L40.915 78.2629C41.4603 77.3151 42.4274 75.6328 43.0641 74.5244C43.7006 73.4162 44.569 71.9052 44.9939 71.1667L44.9939 71.1667C45.419 70.4275 46.0685 69.297 46.4374 68.6541C47.2271 67.2776 48.1828 65.6148 50.1794 62.1431L49.1595 61.5565L50.1794 62.1431C50.9831 60.7456 51.9875 58.9974 52.4117 58.2581L52.4117 58.258C53.3868 56.5581 54.7401 54.2026 55.884 52.2145L55.884 52.2144C56.3741 51.3625 57.4986 49.404 58.3831 47.8619C59.2673 46.3201 60.3239 44.4816 60.731 43.7765C61.1396 43.0685 61.9035 41.7403 62.4289 40.8241L62.4289 40.8241C62.9534 39.9095 63.7242 38.5705 64.1414 37.8493L64.1414 37.8492C64.5581 37.1288 65.0005 36.3578 65.1223 36.1391C65.2335 35.9395 65.9886 34.6222 66.805 33.2039L65.7853 32.617L66.805 33.2039C68.9956 29.3979 69.5375 28.4555 70.5165 26.7487C71.0047 25.8977 71.6611 24.7551 71.9751 24.2099C72.5203 23.2634 72.8882 22.6233 75.0133 18.923C76.2787 16.7194 77.5664 14.4793 78.4873 12.879L77.4675 12.2921L78.4873 12.8789C78.9127 12.1395 79.6376 10.8774 80.0982 10.0738C80.5582 9.27122 81.4556 7.70783 82.0923 6.59986L82.9182 5.16279L85.8427 5.10909C87.8174 5.07289 90.0558 5.02644 90.8165 5.00584L121.233 4.36885ZM103.517 35.1971C103.508 35.2123 103.51 35.2087 103.519 35.1947L103.517 35.1971ZM103.574 35.1158C103.574 35.1149 103.575 35.1139 103.576 35.113L103.576 35.1131C103.575 35.114 103.574 35.1149 103.574 35.1158Z" fill="white" stroke="black" stroke-width="2.35312"/>
</svg>
